<?xml version="1.0" encoding="UTF-8"?>
<svg id="a" data-name="Capa 1" xmlns="http://www.w3.org/2000/svg" viewBox="0 0 14697.94 10392.48">
  <defs>
    <style>
      .b {
        fill: #1e1e1c;
      }

      .c {
        fill: #dac3df;
      }
    </style>
  </defs>
  <path class="c" d="M6490.87,502.39c2464.2-917.48,6727.68,987.89,6112.28,4278.36-129.52,1154.39-273.22,2307.7-432.74,3458.51-176.6,1273.97-784.18,1830.68-2068.26,1848.43-1680.6,23.25-3364.63,65.41-5042.05-11.48-2484.94-113.88-3746.76-2341.42-2595.77-4576.6C3586.93,3436.26,4423.69,1393.81,6490.87,502.39"/>
  <g>
    <path class="b" d="M3673.52,7016.04c0-158.55-101.79-328.86-346.48-328.86-27.4,0-56.77,1.96-86.13,5.88v598.99h125.28c223.15,0,307.32-125.28,307.32-276.01M3655.91,7705.08c-117.45-285.8-127.24-381.72-299.5-381.72h-115.49v454.14c0,140.94,13.7,199.67,78.3,221.2v27.4h-364.09v-27.4c64.59-21.53,78.3-80.26,78.3-221.2v-873.05c0-140.94-13.7-199.67-78.3-221.2v-27.4h411.07c426.73,0,514.82,154.64,514.82,313.19,0,180.09-123.32,315.16-383.67,346.48,221.2,25.45,264.27,117.45,368.01,377.8,103.75,260.35,125.28,307.33,197.71,307.33,9.78,0,19.57,0,29.37-1.96v27.4c-45.03,11.75-107.66,13.7-140.94,13.7-162.47,0-201.62-105.71-295.58-334.73"/>
    <path class="b" d="M4859.75,6428.8c0-56.77,46.98-101.79,107.66-101.79,56.76,0,103.74,46.98,103.74,105.71s-45.03,103.74-103.74,103.74-107.66-45.02-107.66-107.66M4526.98,6428.8c0-56.77,45.02-101.79,103.75-101.79,62.64,0,107.66,45.02,107.66,105.71s-46.98,103.74-107.66,103.74-103.75-45.02-103.75-107.66M5321.73,7501.5c-29.37-416.95-264.27-810.4-602.91-810.4-266.22,0-416.94,207.49-395.41,524.61,27.41,391.49,276.01,769.29,608.78,769.29,299.5,0,407.15-225.12,389.54-483.5M4119.82,7335.11c0-387.59,285.79-694.91,700.79-694.91,330.81,0,698.82,227.07,698.82,706.66s-369.97,698.82-698.82,698.82-700.79-219.24-700.79-710.57"/>
    <path class="b" d="M5652.51,7998.71c64.59-21.53,78.3-80.26,78.3-221.2v-873.05c0-140.94-13.7-199.66-78.3-221.2v-27.4h364.1v27.4c-64.6,21.54-78.31,80.26-78.31,221.2v460.01l475.68-487.42c125.28-127.24,131.15-187.92,46.98-201.62v-19.57h307.33v27.4c-78.3,21.54-168.34,48.94-268.17,150.73l-416.95,426.74,48.94-1.96c293.62-15.65,350.39,84.18,471.75,395.42,115.49,297.53,142.9,344.52,205.54,344.52,9.79,0,17.62,0,29.37-1.96v29.37c-45.03,11.74-92,13.7-133.11,13.7-162.47,0-184.01-46.99-301.46-334.74-123.32-303.41-142.89-411.07-319.07-411.07h-35.24l-111.58,115.49v368.01c0,140.94,13.7,199.67,78.31,221.2v27.41h-364.1v-27.41Z"/>
    <path class="b" d="M6915.07,7998.71c64.59-21.53,78.3-80.26,78.3-221.2v-873.05c0-140.94-13.7-199.66-78.3-221.2v-27.4h364.1v27.4c-64.6,21.54-78.31,80.26-78.31,221.2v460.01l475.68-487.42c125.28-127.24,131.15-187.92,46.98-201.62v-19.57h307.33v27.4c-78.3,21.54-168.34,48.94-268.17,150.73l-416.95,426.74,48.94-1.96c293.63-15.65,350.39,84.18,471.75,395.42,115.49,297.53,142.9,344.52,205.54,344.52,9.79,0,17.62,0,29.37-1.96v29.37c-45.03,11.74-92,13.7-133.11,13.7-162.47,0-184.01-46.99-301.46-334.74-123.32-303.41-142.89-411.07-319.07-411.07h-35.24l-111.58,115.49v368.01c0,140.94,13.7,199.67,78.31,221.2v27.41h-364.1v-27.41Z"/>
    <path class="b" d="M8966.5,7483.88l-252.51-604.86-244.69,604.86h497.2ZM8142.39,7998.71c58.72-21.53,111.58-72.43,164.43-203.58l366.05-908.28c15.66-39.15,13.7-70.47-3.91-105.7l-25.44-54.81,191.84-86.13,485.46,1156.88c54.8,129.2,105.7,180.09,150.72,201.62v27.41h-356.26v-27.41c64.6-21.53,37.19-72.43-17.62-201.62l-117.45-281.88h-522.65l-113.53,279.92c-52.85,131.15-41.11,187.92,25.44,203.58v27.41h-227.07v-27.41Z"/>
    <path class="b" d="M10252.55,7016.04c0-158.55-101.79-328.86-346.48-328.86-27.4,0-56.77,1.96-86.13,5.88v598.99h125.28c223.16,0,307.33-125.28,307.33-276.01M10234.93,7705.08c-117.45-285.8-127.24-381.72-299.5-381.72h-115.49v454.14c0,140.94,13.7,199.67,78.3,221.2v27.4h-364.1v-27.4c64.6-21.53,78.3-80.26,78.3-221.2v-873.05c0-140.94-13.7-199.67-78.3-221.2v-27.4h411.07c426.73,0,514.82,154.64,514.82,313.19,0,180.09-123.33,315.16-383.67,346.48,221.19,25.45,264.25,117.45,368,377.8,103.75,260.35,125.28,307.33,197.71,307.33,9.78,0,19.57,0,29.36-1.96v27.4c-45.03,11.75-107.66,13.7-140.94,13.7-162.47,0-201.62-105.71-295.58-334.73"/>
    <path class="b" d="M10941.57,7998.71c64.6-21.53,78.31-80.26,78.31-221.2v-1086.41h-60.69c-174.21,0-262.3,48.93-334.73,205.54l-23.49-3.91,11.75-236.86h1019.85l11.75,236.86-23.49,3.91c-72.43-156.6-160.52-205.54-334.73-205.54h-56.77v1086.41c0,140.94,13.7,199.67,78.3,221.2v27.41h-366.05v-27.41Z"/>
  </g>
</svg>